<svg width="17" height="17" viewBox="0 0 17 17" fill="none" xmlns="http://www.w3.org/2000/svg">
<path d="M0.220215 4.57715C0.220215 3.50391 0.490234 2.59131 1.03027 1.83936C1.57031 1.0874 2.35303 0.711426 3.37842 0.711426C4.32178 0.711426 5.10107 1.0498 5.71631 1.72656C6.33838 2.39648 6.64941 3.38428 6.64941 4.68994C6.64941 5.96143 6.33496 6.94238 5.70605 7.63281C5.08398 8.31641 4.31494 8.6582 3.39893 8.6582C2.48975 8.6582 1.73096 8.31982 1.12256 7.64307C0.520996 6.96631 0.220215 5.94434 0.220215 4.57715ZM3.42969 1.98291C2.97168 1.98291 2.58887 2.18115 2.28125 2.57764C1.98047 2.97412 1.83008 3.70215 1.83008 4.76172C1.83008 5.72559 1.98389 6.40576 2.2915 6.80225C2.59912 7.19189 2.97852 7.38672 3.42969 7.38672C3.89453 7.38672 4.27734 7.18848 4.57812 6.79199C4.88574 6.39551 5.03955 5.6709 5.03955 4.61816C5.03955 3.64746 4.88574 2.96729 4.57812 2.57764C4.27051 2.18115 3.8877 1.98291 3.42969 1.98291ZM3.43994 16.5537L11.6636 0.711426H13.1606L4.96777 16.5537H3.43994ZM9.94092 12.4727C9.94092 11.3926 10.2109 10.48 10.751 9.73486C11.291 8.98291 12.0771 8.60693 13.1094 8.60693C14.0527 8.60693 14.832 8.94531 15.4473 9.62207C16.0693 10.292 16.3804 11.2798 16.3804 12.5854C16.3804 13.8569 16.0659 14.8379 15.437 15.5283C14.8149 16.2119 14.0425 16.5537 13.1196 16.5537C12.2104 16.5537 11.4517 16.2153 10.8433 15.5386C10.2417 14.855 9.94092 13.833 9.94092 12.4727ZM13.1606 9.87842C12.6958 9.87842 12.3096 10.0767 12.002 10.4731C11.7012 10.8696 11.5508 11.5977 11.5508 12.6572C11.5508 13.6143 11.7046 14.291 12.0122 14.6875C12.3198 15.084 12.6992 15.2822 13.1504 15.2822C13.6221 15.2822 14.0083 15.084 14.3091 14.6875C14.6167 14.291 14.7705 13.5664 14.7705 12.5137C14.7705 11.543 14.6167 10.8628 14.3091 10.4731C14.0015 10.0767 13.6187 9.87842 13.1606 9.87842Z" fill="#E5E5E5"/>
</svg>
