<svg width="16" height="20" viewBox="0 0 16 20" fill="none" xmlns="http://www.w3.org/2000/svg">
<path d="M2.26221 10.1988C2.26221 7.19841 2.26221 4.19805 2.26221 0.997671C5.25201 0.997671 7.95902 0.87766 10.666 1.03768C13.4942 1.1977 15.6355 3.83802 15.5547 6.71836C15.4739 9.51869 13.2922 11.959 10.464 12.079C8.44385 12.199 6.4641 12.119 4.36316 12.119L2.26221 10.1988ZM4.36316 2.83789C4.36316 5.3982 4.36316 7.79848 4.36316 10.2788C4.88839 10.3188 6.4641 10.2788 6.86813 10.2788C7.99941 10.2788 9.57513 10.3188 10.464 10.1988C12.3629 9.99874 13.7366 8.35855 13.6962 6.51833C13.6558 4.5981 12.2013 2.95791 10.2216 2.83789C8.32263 2.75788 6.38329 2.83789 4.36316 2.83789Z" fill="#FF7931"/>
<path d="M8.20164 12.5591C7.5956 12.5591 6.94915 12.5591 6.3027 12.5591C5.65626 12.5591 5.00982 12.5591 4.36337 12.5591V11.759C5.00982 11.759 5.65626 11.759 6.3027 11.759C7.7168 11.759 9.09051 11.799 10.4642 11.719C13.05 11.559 15.1105 9.39874 15.1509 6.71842C15.2317 3.95809 13.1712 1.59781 10.6258 1.43779C8.76728 1.31778 6.90875 1.35778 4.96942 1.39778C4.20176 1.39778 3.43411 1.43779 2.66645 1.43779V10.2388H1.8584V0.637695H2.26243C3.19169 0.637695 4.08056 0.637692 4.96942 0.597688C6.94915 0.557683 8.80768 0.557685 10.7066 0.637695C13.6964 0.797714 16.0398 3.55805 15.9994 6.71842C15.9186 9.79879 13.5348 12.3191 10.545 12.4791C9.73694 12.5591 8.96929 12.5591 8.20164 12.5591ZM8.20164 10.6789C7.79761 10.6789 7.35318 10.6789 6.86835 10.6789C6.70674 10.6789 6.38353 10.6789 6.0199 10.6789C5.37346 10.6789 4.6462 10.6789 4.32298 10.6789L3.95935 10.6389V2.3979H4.36337C5.00982 2.3979 5.61588 2.3979 6.22192 2.3979C7.59561 2.3979 8.9289 2.3579 10.2622 2.43791C12.4035 2.55792 14.1004 4.35814 14.1408 6.5184C14.1813 8.59864 12.5651 10.3988 10.545 10.5989C10.0198 10.6789 9.21171 10.6789 8.20164 10.6789ZM6.70673 9.87879C6.78754 9.87879 6.82795 9.87879 6.86835 9.87879C8.56527 9.9188 9.73694 9.87879 10.4238 9.83879C12.0399 9.67877 13.3328 8.23859 13.2924 6.55839C13.2924 4.79818 11.9187 3.35802 10.1814 3.27801C8.88849 3.198 7.59561 3.238 6.22192 3.238C5.73708 3.238 5.25224 3.238 4.7674 3.238V9.87879C5.13103 9.87879 5.61588 9.87879 6.0199 9.87879C6.30272 9.87879 6.54512 9.87879 6.70673 9.87879Z" fill="#FF7931"/>
<path d="M5.09065 10.2789H0.444336V12.1591H5.09065V10.2789Z" fill="#FF7931"/>
<path d="M5.45437 12.5191H0V9.83875H5.45437V12.5191ZM0.848448 11.719H4.68671V10.6388H0.848448V11.719Z" fill="#FF7931"/>
<path d="M8.84813 13.9993H0.444336V15.8795H8.84813V13.9993Z" fill="#FF7931"/>
<path d="M9.25189 16.2797H0.0400391V13.5994H9.25189V16.2797ZM0.848094 15.4796H8.44383V14.3995H0.848094V15.4796Z" fill="#FF7931"/>
<path d="M4.36316 9.11877H2.26221V19.6H4.36316V9.11877Z" fill="#FF7931"/>
<path d="M4.7674 20.0001H1.8584V8.71875H4.7674V20.0001ZM2.66645 19.2H3.95935V9.51884H2.66645V19.2Z" fill="#FF7931"/>
</svg>
