<svg width="12" height="15" viewBox="0 0 12 15" fill="none" xmlns="http://www.w3.org/2000/svg">
<mask id="path-1-inside-1" fill="white">
<path fill-rule="evenodd" clip-rule="evenodd" d="M4.72721 9.56858H6.15141H6.15157C6.72726 9.56858 7.30294 9.56858 7.90892 9.51018C10.1513 9.39338 11.9391 7.5537 11.9997 5.30521C12.03 2.99831 10.2725 0.983425 8.03013 0.866621C6.60594 0.808218 5.21204 0.808216 3.72725 0.837418C3.06061 0.866619 2.39396 0.866621 1.69701 0.866621H1.39399V6.76521V7.58286H0V9.53935H1.39399V10.3278H0.0303621V12.2843H1.39399V15H3.57574V12.2843H6.93922V10.3278H3.57574V9.56858H4.72721ZM3.57574 7.58286H4.09076V7.6121H4.51511H5.03023H5.15144C6.42413 7.6413 7.30288 7.6121 7.81801 7.5829C9.03009 7.46609 9.99977 6.41485 9.96946 5.1884C9.96946 3.90354 8.93919 2.8523 7.63621 2.7939C6.91169 2.75026 6.18717 2.75553 5.43737 2.76099C5.18367 2.76283 4.92708 2.7647 4.66662 2.7647H3.57574V6.76521V7.58286Z"/>
</mask>
<path fill-rule="evenodd" clip-rule="evenodd" d="M4.72721 9.56858H6.15141H6.15157C6.72726 9.56858 7.30294 9.56858 7.90892 9.51018C10.1513 9.39338 11.9391 7.5537 11.9997 5.30521C12.03 2.99831 10.2725 0.983425 8.03013 0.866621C6.60594 0.808218 5.21204 0.808216 3.72725 0.837418C3.06061 0.866619 2.39396 0.866621 1.69701 0.866621H1.39399V6.76521V7.58286H0V9.53935H1.39399V10.3278H0.0303621V12.2843H1.39399V15H3.57574V12.2843H6.93922V10.3278H3.57574V9.56858H4.72721ZM3.57574 7.58286H4.09076V7.6121H4.51511H5.03023H5.15144C6.42413 7.6413 7.30288 7.6121 7.81801 7.5829C9.03009 7.46609 9.99977 6.41485 9.96946 5.1884C9.96946 3.90354 8.93919 2.8523 7.63621 2.7939C6.91169 2.75026 6.18717 2.75553 5.43737 2.76099C5.18367 2.76283 4.92708 2.7647 4.66662 2.7647H3.57574V6.76521V7.58286Z" fill="#A8A8A8"/>
<path d="M7.90892 9.51018L7.8959 9.26028L7.88494 9.26133L7.90892 9.51018ZM11.9997 5.30521L12.2496 5.31194L12.2497 5.30849L11.9997 5.30521ZM8.03013 0.866621L8.04314 0.616944L8.04037 0.616831L8.03013 0.866621ZM3.72725 0.837418L3.72233 0.587393L3.71631 0.587657L3.72725 0.837418ZM1.39399 0.866621V0.616621H1.14399V0.866621H1.39399ZM1.39399 7.58286V7.83286H1.64399V7.58286H1.39399ZM0 7.58286V7.33286H-0.25V7.58286H0ZM0 9.53935H-0.25V9.78935H0V9.53935ZM1.39399 9.53935H1.64399V9.28935H1.39399V9.53935ZM1.39399 10.3278V10.5778H1.64399V10.3278H1.39399ZM0.0303621 10.3278V10.0778H-0.219638V10.3278H0.0303621ZM0.0303621 12.2843H-0.219638V12.5343H0.0303621V12.2843ZM1.39399 12.2843H1.64399V12.0343H1.39399V12.2843ZM1.39399 15H1.14399V15.25H1.39399V15ZM3.57574 15V15.25H3.82574V15H3.57574ZM3.57574 12.2843V12.0343H3.32574V12.2843H3.57574ZM6.93922 12.2843V12.5343H7.18922V12.2843H6.93922ZM6.93922 10.3278H7.18922V10.0778H6.93922V10.3278ZM3.57574 10.3278H3.32574V10.5778H3.57574V10.3278ZM3.57574 9.56858V9.31858H3.32574V9.56858H3.57574ZM4.09076 7.58286H4.34076V7.33286H4.09076V7.58286ZM3.57574 7.58286H3.32574V7.83286H3.57574V7.58286ZM4.09076 7.6121H3.84076V7.8621H4.09076V7.6121ZM5.15144 7.6121L5.15718 7.3621H5.15144V7.6121ZM7.81801 7.5829L7.83217 7.83269L7.84199 7.83175L7.81801 7.5829ZM9.96946 5.1884H9.71939L9.71954 5.19457L9.96946 5.1884ZM7.63621 2.7939L7.62118 3.04348L7.62501 3.04365L7.63621 2.7939ZM5.43737 2.76099L5.43555 2.51099L5.43737 2.76099ZM3.57574 2.7647V2.5147H3.32574V2.7647H3.57574ZM6.15141 9.31858H4.72721V9.81858H6.15141V9.31858ZM6.15157 9.31858H6.15141V9.81858H6.15157V9.31858ZM7.88494 9.26133C7.29274 9.3184 6.72876 9.31858 6.15157 9.31858V9.81858C6.72575 9.81858 7.31313 9.81875 7.9329 9.75903L7.88494 9.26133ZM11.7498 5.29847C11.6927 7.41722 10.0074 9.15053 7.89591 9.26052L7.92192 9.75984C10.2951 9.63622 12.1855 7.69019 12.2496 5.31194L11.7498 5.29847ZM8.01713 1.11628C10.1131 1.22546 11.7784 3.11666 11.7497 5.30192L12.2497 5.30849C12.2816 2.87997 10.4319 0.741389 8.04314 0.616959L8.01713 1.11628ZM3.73216 1.08737C5.21392 1.05823 6.60242 1.05828 8.01989 1.11641L8.04037 0.616831C6.60946 0.558152 5.21017 0.558205 3.72233 0.587466L3.73216 1.08737ZM1.69701 1.11662C2.39299 1.11662 3.06515 1.11666 3.73819 1.08718L3.71631 0.587657C3.05606 0.616578 2.39493 0.616621 1.69701 0.616621V1.11662ZM1.39399 1.11662H1.69701V0.616621H1.39399V1.11662ZM1.64399 6.76521V0.866621H1.14399V6.76521H1.64399ZM1.64399 7.58286V6.76521H1.14399V7.58286H1.64399ZM0 7.83286H1.39399V7.33286H0V7.83286ZM0.25 9.53935V7.58286H-0.25V9.53935H0.25ZM1.39399 9.28935H0V9.78935H1.39399V9.28935ZM1.64399 10.3278V9.53935H1.14399V10.3278H1.64399ZM0.0303621 10.5778H1.39399V10.0778H0.0303621V10.5778ZM0.280362 12.2843V10.3278H-0.219638V12.2843H0.280362ZM1.39399 12.0343H0.0303621V12.5343H1.39399V12.0343ZM1.64399 15V12.2843H1.14399V15H1.64399ZM3.57574 14.75H1.39399V15.25H3.57574V14.75ZM3.32574 12.2843V15H3.82574V12.2843H3.32574ZM6.93922 12.0343H3.57574V12.5343H6.93922V12.0343ZM6.68922 10.3278V12.2843H7.18922V10.3278H6.68922ZM3.57574 10.5778H6.93922V10.0778H3.57574V10.5778ZM3.32574 9.56858V10.3278H3.82574V9.56858H3.32574ZM4.72721 9.31858H3.57574V9.81858H4.72721V9.31858ZM4.09076 7.33286H3.57574V7.83286H4.09076V7.33286ZM4.34076 7.6121V7.58286H3.84076V7.6121H4.34076ZM4.51511 7.3621H4.09076V7.8621H4.51511V7.3621ZM5.03023 7.3621H4.51511V7.8621H5.03023V7.3621ZM5.15144 7.3621H5.03023V7.8621H5.15144V7.3621ZM7.80386 7.3333C7.29548 7.36212 6.42336 7.39122 5.15718 7.36217L5.14571 7.86204C6.4249 7.89139 7.31029 7.86208 7.83216 7.8325L7.80386 7.3333ZM9.71954 5.19457C9.74648 6.28493 8.88058 7.22934 7.79403 7.33405L7.84199 7.83175C9.17961 7.70284 10.2531 6.54476 10.2194 5.18222L9.71954 5.19457ZM7.62501 3.04365C8.7992 3.09628 9.71946 4.042 9.71946 5.1884H10.2195C10.2195 3.76509 9.07919 2.60833 7.6474 2.54415L7.62501 3.04365ZM5.43919 3.01098C6.19046 3.00552 6.9065 3.00041 7.62118 3.04345L7.65124 2.54435C6.91688 2.50012 6.18388 2.50555 5.43555 2.51099L5.43919 3.01098ZM4.66662 3.0147C4.92814 3.0147 5.18563 3.01283 5.43919 3.01098L5.43555 2.51099C5.18172 2.51284 4.92603 2.5147 4.66662 2.5147V3.0147ZM3.57574 3.0147H4.66662V2.5147H3.57574V3.0147ZM3.82574 6.76521V2.7647H3.32574V6.76521H3.82574ZM3.32574 6.76521V7.58286H3.82574V6.76521H3.32574Z" fill="white" mask="url(#path-1-inside-1)"/>
</svg>
